<?xml version="1.0" encoding="UTF-8"?>
<svg id="Layer_1" data-name="Layer 1" xmlns="http://www.w3.org/2000/svg" viewBox="0 0 332.32 171.05">
  <defs>
    <style>
      .cls-1 {
        fill: #fff;
        stroke-width: 0px;
      }
    </style>
  </defs>
  <g>
    <path class="cls-1" d="M175.62,164.88c1.79,0,3.19,0,4.18-.6,1.99-.8,3.19-2.19,3.19-4.18s-.6-1.99-1.59-2.79c-1-.6-2.59-1.19-4.78-1.59l-3.78-.8c-3.58-.8-6.17-1.79-7.57-2.79-2.39-1.59-3.58-4.18-3.58-7.57s1.19-5.77,3.38-7.96,5.77-3.19,10.15-3.19,6.97,1,9.56,2.99,3.98,4.78,4.18,8.56h-7.17c0-2.19-1-3.58-2.79-4.58-1.19-.6-2.59-1-4.38-1s-3.38.4-4.58,1.19c-1.19.8-1.79,1.79-1.79,3.19s.6,2.19,1.59,2.79c.8.4,2.19,1,4.58,1.39l6.17,1.39c2.59.6,4.78,1.59,5.97,2.59,2.19,1.59,3.19,3.98,3.19,7.17s-1.19,5.97-3.78,7.96c-2.39,2.19-5.97,3.19-10.55,3.19s-8.16-1-10.95-3.19-3.98-4.98-3.98-8.76h7.17c0,1.59.6,2.79,1.39,3.58,1.19,1.39,3.19,2.19,6.17,2.19h0l.4.8h0Z"/>
    <path class="cls-1" d="M219.23,133.42v6.57h-10.55v30.86h-7.37v-30.86h-10.55v-6.57h28.67-.2Z"/>
    <path class="cls-1" d="M242.32,155.92v-22.5h7.57v22.5c0,3.98-.6,6.97-1.79,8.96-2.19,3.98-6.37,5.97-12.54,5.97s-10.35-1.99-12.54-5.97c-1.19-2.19-1.79-5.18-1.79-8.96v-22.5h7.57v22.5c0,2.59,0,4.38.8,5.58.8,1.99,2.79,2.99,5.77,2.99s4.98-1,5.77-2.99c.6-1.19.8-2.99.8-5.58h.4Z"/>
    <path class="cls-1" d="M270,170.86h-15.33v-37.43h15.33c2.19,0,3.98.4,5.58.8,2.39.8,4.58,2.39,5.97,4.78,1.19,1.79,1.99,3.98,2.59,5.97.4,2.19.6,4.18.6,6.17,0,4.98-1,9.16-2.79,12.54-2.59,4.58-6.57,6.97-11.95,6.97h0v.2ZM275.58,143.58c-1.19-1.99-3.38-2.99-6.77-2.99h-6.77v23.1h6.77c3.58,0,5.97-1.79,7.37-5.18.8-1.99,1.19-4.18,1.19-6.77s-.6-6.37-1.59-8.36h0l-.2.2Z"/>
    <path class="cls-1" d="M287.52,133.42h7.37v37.43h-7.37v-37.43Z"/>
    <path class="cls-1" d="M315.4,171.05c-4.98,0-8.96-1.39-11.55-4.18-3.58-3.38-5.38-8.16-5.38-14.54s1.79-11.35,5.38-14.54c2.59-2.79,6.57-4.18,11.55-4.18s8.96,1.39,11.55,4.18c3.58,3.19,5.38,8.16,5.38,14.54s-1.79,11.15-5.38,14.54c-2.59,2.79-6.57,4.18-11.55,4.18ZM322.37,161.5c1.79-2.19,2.59-5.18,2.59-9.16s-.8-6.97-2.59-9.16-3.98-3.19-6.97-3.19-5.38,1-6.97,3.19-2.59,5.18-2.59,9.16.8,6.97,2.59,9.16,4.18,3.19,6.97,3.19,5.18-1,6.97-3.19h0Z"/>
  </g>
  <g>
    <path class="cls-1" d="M137.19,147.96c-2.59,1.39-5.38,2.39-8.36,2.99-9.56,1.99-18.92,0-27.68-6.77-9.56-6.97-14.14-15.33-14.14-24.89s3.78-19.71,11.15-30.27l57.54,42.61h0l1.79,1.39,4.58,3.38c3.19-2.99,9.16-6.57,18.52-4.18L272.19,7.78l-7.77-5.77c-4.78-3.58-11.75-2.19-15.53,2.79l-57.15,77.66c-1-3.19-2.19-6.57-3.98-9.76-4.18-8.36-9.96-15.13-17.12-20.51-14.14-10.55-29.47-13.94-45.8-10.15-4.38,1-8.76,2.39-12.74,4.38l16.53-21.11c2.59-3.38,3.98-7.37,3.98-11.55V.41H7.77v9.56c0,5.97,4.78,10.75,10.75,10.75h84.62L2.99,148.16c-1.79,2.39-2.99,5.38-2.99,8.36v6.17c0,4.58,3.58,8.16,8.16,8.16h121.86c5.18-.6,10.75-2.39,16.73-4.98,5.97-2.79,10.35-5.77,13.54-9.16l-9.16-6.77c-4.18-2.99-9.76-3.58-14.34-1.39h0l.4-.4v-.2ZM133.01,60.35c9.56-1.79,18.12.2,25.89,5.97,10.75,7.96,15.53,17.92,14.14,29.47-.8,6.37-3.58,13.34-8.36,21.31l-55.95-41.42c6.77-8.56,14.93-13.74,24.29-15.33h0ZM29.27,152.14l38.43-49.18c-1.19,5.77-1.39,11.55-.6,17.12,1.59,12.74,6.57,23.3,15.33,31.86H29.27v.2Z"/>
    <path class="cls-1" d="M177.01,136.61h.6v-.4h-.6v.4Z"/>
  </g>
</svg>